<mxfile host="app.diagrams.net" agent="Mozilla/5.0 (Macintosh; Intel Mac OS X 10_15_7) AppleWebKit/537.36 (KHTML, like Gecko) Chrome/137.0.0.0 Safari/537.36 Edg/137.0.0.0" version="28.1.2">
  <diagram name="第 1 页" id="dRdsefO_J6M_RW2BVGMb">
    <mxGraphModel dx="994" dy="563" grid="1" gridSize="10" guides="1" tooltips="1" connect="1" arrows="1" fold="1" page="1" pageScale="1" pageWidth="1169" pageHeight="827" math="0" shadow="0">
      <root>
        <mxCell id="0" />
        <mxCell id="1" parent="0" />
        <mxCell id="547Sz5GIhuHqpCXiTd1L-10" style="edgeStyle=orthogonalEdgeStyle;rounded=0;orthogonalLoop=1;jettySize=auto;html=1;exitX=0.5;exitY=1;exitDx=0;exitDy=0;entryX=0.5;entryY=0;entryDx=0;entryDy=0;" edge="1" parent="1" source="547Sz5GIhuHqpCXiTd1L-1" target="547Sz5GIhuHqpCXiTd1L-6">
          <mxGeometry relative="1" as="geometry" />
        </mxCell>
        <mxCell id="547Sz5GIhuHqpCXiTd1L-1" value="&lt;font style=&quot;font-size: 16px;&quot;&gt;线程一&lt;/font&gt;" style="ellipse;whiteSpace=wrap;html=1;aspect=fixed;" vertex="1" parent="1">
          <mxGeometry x="310" y="110" width="80" height="80" as="geometry" />
        </mxCell>
        <mxCell id="547Sz5GIhuHqpCXiTd1L-15" style="edgeStyle=orthogonalEdgeStyle;rounded=0;orthogonalLoop=1;jettySize=auto;html=1;exitX=0.5;exitY=1;exitDx=0;exitDy=0;" edge="1" parent="1" source="547Sz5GIhuHqpCXiTd1L-4" target="547Sz5GIhuHqpCXiTd1L-13">
          <mxGeometry relative="1" as="geometry" />
        </mxCell>
        <mxCell id="547Sz5GIhuHqpCXiTd1L-4" value="&lt;font style=&quot;font-size: 16px;&quot;&gt;线程二&lt;/font&gt;" style="ellipse;whiteSpace=wrap;html=1;aspect=fixed;" vertex="1" parent="1">
          <mxGeometry x="504.5" y="110" width="80" height="80" as="geometry" />
        </mxCell>
        <mxCell id="547Sz5GIhuHqpCXiTd1L-18" style="edgeStyle=orthogonalEdgeStyle;rounded=0;orthogonalLoop=1;jettySize=auto;html=1;exitX=0.5;exitY=1;exitDx=0;exitDy=0;entryX=0.5;entryY=0;entryDx=0;entryDy=0;" edge="1" parent="1" source="547Sz5GIhuHqpCXiTd1L-5" target="547Sz5GIhuHqpCXiTd1L-17">
          <mxGeometry relative="1" as="geometry" />
        </mxCell>
        <mxCell id="547Sz5GIhuHqpCXiTd1L-5" value="&lt;font style=&quot;font-size: 16px;&quot;&gt;线程三&lt;/font&gt;" style="ellipse;whiteSpace=wrap;html=1;aspect=fixed;" vertex="1" parent="1">
          <mxGeometry x="690" y="110" width="80" height="80" as="geometry" />
        </mxCell>
        <mxCell id="547Sz5GIhuHqpCXiTd1L-12" style="edgeStyle=orthogonalEdgeStyle;rounded=0;orthogonalLoop=1;jettySize=auto;html=1;exitX=0.5;exitY=1;exitDx=0;exitDy=0;" edge="1" parent="1" source="547Sz5GIhuHqpCXiTd1L-6" target="547Sz5GIhuHqpCXiTd1L-11">
          <mxGeometry relative="1" as="geometry" />
        </mxCell>
        <mxCell id="547Sz5GIhuHqpCXiTd1L-6" value="&lt;font style=&quot;font-size: 14px;&quot;&gt;数据库&lt;/font&gt;&lt;div&gt;&lt;span style=&quot;background-color: transparent; color: light-dark(rgb(0, 0, 0), rgb(255, 255, 255));&quot;&gt;&lt;font style=&quot;font-size: 14px;&quot;&gt;update id = 1001&lt;/font&gt;&lt;/span&gt;&lt;/div&gt;&lt;div&gt;&lt;span style=&quot;background-color: transparent; color: light-dark(rgb(0, 0, 0), rgb(255, 255, 255));&quot;&gt;&lt;font style=&quot;font-size: 14px;&quot;&gt;stock = 10&lt;/font&gt;&lt;/span&gt;&lt;/div&gt;" style="rounded=1;whiteSpace=wrap;html=1;" vertex="1" parent="1">
          <mxGeometry x="290" y="210" width="120" height="60" as="geometry" />
        </mxCell>
        <mxCell id="547Sz5GIhuHqpCXiTd1L-11" value="&lt;span style=&quot;font-size: 14px;&quot;&gt;缓存&amp;nbsp;&lt;/span&gt;&lt;span style=&quot;font-size: 14px; background-color: transparent; color: light-dark(rgb(0, 0, 0), rgb(255, 255, 255));&quot;&gt;del&lt;/span&gt;&lt;div&gt;&lt;span style=&quot;font-size: 14px;&quot;&gt;key = 1001&lt;/span&gt;&lt;/div&gt;" style="rounded=1;whiteSpace=wrap;html=1;" vertex="1" parent="1">
          <mxGeometry x="290" y="290" width="120" height="60" as="geometry" />
        </mxCell>
        <mxCell id="547Sz5GIhuHqpCXiTd1L-16" style="edgeStyle=orthogonalEdgeStyle;rounded=0;orthogonalLoop=1;jettySize=auto;html=1;exitX=0.5;exitY=1;exitDx=0;exitDy=0;entryX=0.5;entryY=0;entryDx=0;entryDy=0;" edge="1" parent="1" source="547Sz5GIhuHqpCXiTd1L-13" target="547Sz5GIhuHqpCXiTd1L-14">
          <mxGeometry relative="1" as="geometry" />
        </mxCell>
        <mxCell id="547Sz5GIhuHqpCXiTd1L-13" value="&lt;font style=&quot;font-size: 14px;&quot;&gt;数据库&lt;/font&gt;&lt;div&gt;&lt;span style=&quot;background-color: transparent; color: light-dark(rgb(0, 0, 0), rgb(255, 255, 255));&quot;&gt;&lt;font style=&quot;font-size: 14px;&quot;&gt;update id = 1001&lt;/font&gt;&lt;/span&gt;&lt;/div&gt;&lt;div&gt;&lt;span style=&quot;background-color: transparent; color: light-dark(rgb(0, 0, 0), rgb(255, 255, 255));&quot;&gt;&lt;font style=&quot;font-size: 14px;&quot;&gt;stock = 6&lt;/font&gt;&lt;/span&gt;&lt;/div&gt;" style="rounded=1;whiteSpace=wrap;html=1;" vertex="1" parent="1">
          <mxGeometry x="484.5" y="490" width="120" height="60" as="geometry" />
        </mxCell>
        <mxCell id="547Sz5GIhuHqpCXiTd1L-14" value="&lt;span style=&quot;font-size: 14px;&quot;&gt;缓存&amp;nbsp;&lt;/span&gt;&lt;span style=&quot;font-size: 14px; background-color: transparent; color: light-dark(rgb(0, 0, 0), rgb(255, 255, 255));&quot;&gt;del&lt;/span&gt;&lt;div&gt;&lt;span style=&quot;font-size: 14px;&quot;&gt;key = 1001&lt;/span&gt;&lt;/div&gt;" style="rounded=1;whiteSpace=wrap;html=1;" vertex="1" parent="1">
          <mxGeometry x="484.5" y="580" width="120" height="60" as="geometry" />
        </mxCell>
        <mxCell id="547Sz5GIhuHqpCXiTd1L-20" style="edgeStyle=orthogonalEdgeStyle;rounded=0;orthogonalLoop=1;jettySize=auto;html=1;exitX=0.5;exitY=1;exitDx=0;exitDy=0;entryX=0.5;entryY=0;entryDx=0;entryDy=0;" edge="1" parent="1" source="547Sz5GIhuHqpCXiTd1L-17" target="547Sz5GIhuHqpCXiTd1L-19">
          <mxGeometry relative="1" as="geometry" />
        </mxCell>
        <mxCell id="547Sz5GIhuHqpCXiTd1L-17" value="&lt;span style=&quot;font-size: 14px;&quot;&gt;缓存&lt;/span&gt;&lt;br&gt;&lt;div&gt;&lt;span style=&quot;background-color: transparent; color: light-dark(rgb(0, 0, 0), rgb(255, 255, 255));&quot;&gt;&lt;font style=&quot;font-size: 14px;&quot;&gt;key = 1001&lt;/font&gt;&lt;/span&gt;&lt;/div&gt;&lt;div&gt;&lt;span style=&quot;font-size: 14px;&quot;&gt;结果: 无&lt;/span&gt;&lt;/div&gt;" style="rounded=1;whiteSpace=wrap;html=1;" vertex="1" parent="1">
          <mxGeometry x="670" y="350" width="120" height="60" as="geometry" />
        </mxCell>
        <mxCell id="547Sz5GIhuHqpCXiTd1L-22" style="edgeStyle=orthogonalEdgeStyle;rounded=0;orthogonalLoop=1;jettySize=auto;html=1;exitX=0.5;exitY=1;exitDx=0;exitDy=0;" edge="1" parent="1" source="547Sz5GIhuHqpCXiTd1L-19" target="547Sz5GIhuHqpCXiTd1L-21">
          <mxGeometry relative="1" as="geometry" />
        </mxCell>
        <mxCell id="547Sz5GIhuHqpCXiTd1L-19" value="&lt;font style=&quot;font-size: 14px;&quot;&gt;数据库&lt;/font&gt;&lt;div&gt;&lt;span style=&quot;background-color: transparent; color: light-dark(rgb(0, 0, 0), rgb(255, 255, 255));&quot;&gt;&lt;font style=&quot;font-size: 14px;&quot;&gt;select id = 1001&lt;/font&gt;&lt;/span&gt;&lt;/div&gt;&lt;div&gt;&lt;span style=&quot;background-color: transparent; color: light-dark(rgb(0, 0, 0), rgb(255, 255, 255));&quot;&gt;&lt;font style=&quot;font-size: 14px;&quot;&gt;stock = 10&lt;/font&gt;&lt;/span&gt;&lt;/div&gt;" style="rounded=1;whiteSpace=wrap;html=1;" vertex="1" parent="1">
          <mxGeometry x="670" y="430" width="120" height="60" as="geometry" />
        </mxCell>
        <mxCell id="547Sz5GIhuHqpCXiTd1L-21" value="&lt;span style=&quot;font-size: 14px;&quot;&gt;缓存&amp;nbsp;&lt;/span&gt;&lt;span style=&quot;font-size: 14px; background-color: transparent; color: light-dark(rgb(0, 0, 0), rgb(255, 255, 255));&quot;&gt;set&lt;/span&gt;&lt;div&gt;&lt;span style=&quot;font-size: 14px;&quot;&gt;key = 1001&lt;/span&gt;&lt;/div&gt;&lt;div&gt;&lt;span style=&quot;font-size: 14px;&quot;&gt;value = 10&lt;/span&gt;&lt;/div&gt;" style="rounded=1;whiteSpace=wrap;html=1;" vertex="1" parent="1">
          <mxGeometry x="670" y="670" width="120" height="60" as="geometry" />
        </mxCell>
        <mxCell id="547Sz5GIhuHqpCXiTd1L-23" value="" style="shape=flexArrow;endArrow=classic;html=1;rounded=0;" edge="1" parent="1">
          <mxGeometry width="50" height="50" relative="1" as="geometry">
            <mxPoint x="250" y="130" as="sourcePoint" />
            <mxPoint x="250" y="680" as="targetPoint" />
          </mxGeometry>
        </mxCell>
        <mxCell id="547Sz5GIhuHqpCXiTd1L-24" value="&lt;font style=&quot;font-size: 16px;&quot;&gt;时&lt;/font&gt;&lt;div&gt;&lt;font style=&quot;font-size: 16px;&quot;&gt;间&lt;/font&gt;&lt;/div&gt;&lt;div&gt;&lt;font style=&quot;font-size: 16px;&quot;&gt;线&lt;/font&gt;&lt;/div&gt;" style="text;html=1;align=center;verticalAlign=middle;whiteSpace=wrap;rounded=0;" vertex="1" parent="1">
          <mxGeometry x="200" y="260" width="60" height="130" as="geometry" />
        </mxCell>
      </root>
    </mxGraphModel>
  </diagram>
</mxfile>
